<mxfile host="app.diagrams.net" modified="2023-08-24T07:42:23.885Z" agent="Mozilla/5.0 (Windows NT 10.0; Win64; x64) AppleWebKit/537.36 (KHTML, like Gecko) Chrome/115.0.0.0 Safari/537.36 Edg/115.0.1901.203" etag="IKYiQM4yyDqGNvSIz6EJ" version="21.6.9" type="github">
  <diagram name="Page-1" id="c7558073-3199-34d8-9f00-42111426c3f3">
    <mxGraphModel dx="1462" dy="800" grid="1" gridSize="10" guides="1" tooltips="1" connect="1" arrows="1" fold="1" page="1" pageScale="1" pageWidth="1169" pageHeight="827" background="none" math="0" shadow="0">
      <root>
        <mxCell id="0" />
        <mxCell id="1" parent="0" />
        <mxCell id="2" value="&lt;p style=&quot;margin: 0px; margin-top: 4px; text-align: center; text-decoration: underline;&quot;&gt;&lt;strong&gt;ABPQL&lt;br&gt;&lt;/strong&gt;&lt;/p&gt;&lt;hr&gt;&lt;p style=&quot;margin: 0px; margin-left: 8px;&quot;&gt;Typescript&lt;/p&gt;" style="verticalAlign=middle;align=center;overflow=fill;fontSize=12;fontFamily=Helvetica;html=1;rounded=1;fontStyle=1;strokeWidth=3;fillColor=#E6FFCC" parent="1" vertex="1">
          <mxGeometry x="236" y="236" width="110" height="90" as="geometry" />
        </mxCell>
        <mxCell id="37" value="" style="edgeStyle=none;noEdgeStyle=1;strokeColor=#990000;strokeWidth=2" parent="1" target="2" edge="1">
          <mxGeometry width="100" height="100" relative="1" as="geometry">
            <mxPoint x="120" y="281" as="sourcePoint" />
            <mxPoint x="380" y="90" as="targetPoint" />
          </mxGeometry>
        </mxCell>
        <mxCell id="52" value="REST" style="text;spacingTop=-5;align=center" parent="1" vertex="1">
          <mxGeometry x="165" y="251" width="30" height="20" as="geometry" />
        </mxCell>
        <mxCell id="Vciy-SmRDI5QlQ2o9Kxp-97" value="&lt;p style=&quot;margin: 0px; margin-top: 4px; text-align: center; text-decoration: underline;&quot;&gt;&lt;strong&gt;ABPUI&lt;br&gt;&lt;/strong&gt;&lt;/p&gt;&lt;hr&gt;&lt;p style=&quot;margin: 0px; margin-left: 8px;&quot;&gt;React, Javascript&lt;/p&gt;" style="verticalAlign=middle;align=center;overflow=fill;fontSize=12;fontFamily=Helvetica;html=1;rounded=1;fontStyle=1;strokeWidth=3;fillColor=#E6FFCC" vertex="1" parent="1">
          <mxGeometry x="15" y="236" width="110" height="90" as="geometry" />
        </mxCell>
        <mxCell id="Vciy-SmRDI5QlQ2o9Kxp-100" value="&lt;p style=&quot;margin: 0px; margin-top: 4px; text-align: center; text-decoration: underline;&quot;&gt;&lt;strong&gt;Temporal&lt;br&gt;&lt;/strong&gt;&lt;/p&gt;&lt;hr&gt;&lt;p style=&quot;margin: 0px; margin-left: 8px;&quot;&gt;&lt;br&gt;&lt;/p&gt;" style="verticalAlign=middle;align=center;overflow=fill;fontSize=12;fontFamily=Helvetica;html=1;rounded=1;fontStyle=1;strokeWidth=3;fillColor=#f8cecc;strokeColor=#b85450;" vertex="1" parent="1">
          <mxGeometry x="532" y="236" width="308" height="90" as="geometry" />
        </mxCell>
        <mxCell id="Vciy-SmRDI5QlQ2o9Kxp-103" value="" style="shape=flexArrow;endArrow=classic;startArrow=classic;html=1;rounded=1;entryX=0;entryY=0.5;entryDx=0;entryDy=0;exitX=1;exitY=0.5;exitDx=0;exitDy=0;strokeColor=#990000;strokeWidth=2;fillColor=#990000;" edge="1" parent="1" source="2" target="Vciy-SmRDI5QlQ2o9Kxp-100">
          <mxGeometry width="100" height="100" relative="1" as="geometry">
            <mxPoint x="370" y="351" as="sourcePoint" />
            <mxPoint x="470" y="251" as="targetPoint" />
          </mxGeometry>
        </mxCell>
        <mxCell id="Vciy-SmRDI5QlQ2o9Kxp-141" value="GRPC" style="edgeLabel;html=1;align=center;verticalAlign=middle;resizable=0;points=[];" vertex="1" connectable="0" parent="Vciy-SmRDI5QlQ2o9Kxp-103">
          <mxGeometry x="0.0609" y="2" relative="1" as="geometry">
            <mxPoint as="offset" />
          </mxGeometry>
        </mxCell>
        <mxCell id="Vciy-SmRDI5QlQ2o9Kxp-106" value="&lt;p style=&quot;margin: 0px; margin-top: 4px; text-align: center; text-decoration: underline;&quot;&gt;&lt;strong&gt;ZTP&lt;br&gt;&lt;/strong&gt;&lt;/p&gt;&lt;hr&gt;&lt;p style=&quot;margin: 0px; margin-left: 8px;&quot;&gt;JAVA&lt;/p&gt;" style="verticalAlign=middle;align=center;overflow=fill;fontSize=12;fontFamily=Helvetica;html=1;rounded=1;fontStyle=1;strokeWidth=3;fillColor=#E6FFCC" vertex="1" parent="1">
          <mxGeometry x="631" y="520" width="110" height="90" as="geometry" />
        </mxCell>
        <mxCell id="Vciy-SmRDI5QlQ2o9Kxp-107" value="GRPC" style="shape=flexArrow;endArrow=classic;startArrow=classic;html=1;rounded=1;entryX=0.5;entryY=1;entryDx=0;entryDy=0;exitX=0.5;exitY=0;exitDx=0;exitDy=0;strokeColor=#990000;strokeWidth=2;fillColor=#990000;entryPerimeter=0;" edge="1" parent="1" source="Vciy-SmRDI5QlQ2o9Kxp-106" target="Vciy-SmRDI5QlQ2o9Kxp-131">
          <mxGeometry width="100" height="100" relative="1" as="geometry">
            <mxPoint x="518" y="400" as="sourcePoint" />
            <mxPoint x="686" y="334" as="targetPoint" />
          </mxGeometry>
        </mxCell>
        <mxCell id="Vciy-SmRDI5QlQ2o9Kxp-111" value="Endpoints" style="sketch=0;outlineConnect=0;fontColor=#232F3E;gradientColor=none;strokeColor=#232F3E;fillColor=#ffffff;dashed=0;verticalLabelPosition=bottom;verticalAlign=top;align=center;html=1;fontSize=12;fontStyle=0;aspect=fixed;shape=mxgraph.aws4.resourceIcon;resIcon=mxgraph.aws4.endpoints;" vertex="1" parent="1">
          <mxGeometry x="273" y="288" width="36" height="36" as="geometry" />
        </mxCell>
        <mxCell id="Vciy-SmRDI5QlQ2o9Kxp-112" value="&lt;p style=&quot;margin: 0px; margin-top: 4px; text-align: center; text-decoration: underline;&quot;&gt;&lt;strong&gt;Foreman&lt;br&gt;&lt;/strong&gt;&lt;/p&gt;&lt;hr&gt;&lt;p style=&quot;margin: 0px; margin-left: 8px;&quot;&gt;&lt;br&gt;&lt;/p&gt;" style="verticalAlign=middle;align=center;overflow=fill;fontSize=12;fontFamily=Helvetica;html=1;rounded=1;fontStyle=1;strokeWidth=3;fillColor=#f8cecc;strokeColor=#b85450;" vertex="1" parent="1">
          <mxGeometry x="221" y="520" width="140" height="90" as="geometry" />
        </mxCell>
        <mxCell id="Vciy-SmRDI5QlQ2o9Kxp-113" value="" style="edgeStyle=none;noEdgeStyle=1;strokeColor=#990000;strokeWidth=2;entryX=0.5;entryY=0;entryDx=0;entryDy=0;" edge="1" parent="1">
          <mxGeometry width="100" height="100" relative="1" as="geometry">
            <mxPoint x="292" y="324" as="sourcePoint" />
            <mxPoint x="292.0000000000002" y="520" as="targetPoint" />
          </mxGeometry>
        </mxCell>
        <mxCell id="Vciy-SmRDI5QlQ2o9Kxp-140" value="REST" style="edgeLabel;html=1;align=center;verticalAlign=middle;resizable=0;points=[];" vertex="1" connectable="0" parent="Vciy-SmRDI5QlQ2o9Kxp-113">
          <mxGeometry x="0.06" relative="1" as="geometry">
            <mxPoint as="offset" />
          </mxGeometry>
        </mxCell>
        <mxCell id="Vciy-SmRDI5QlQ2o9Kxp-117" value="" style="edgeStyle=none;noEdgeStyle=1;strokeColor=#990000;strokeWidth=2;entryX=1;entryY=0.5;entryDx=0;entryDy=0;" edge="1" parent="1" source="Vciy-SmRDI5QlQ2o9Kxp-106" target="Vciy-SmRDI5QlQ2o9Kxp-112">
          <mxGeometry width="100" height="100" relative="1" as="geometry">
            <mxPoint x="540" y="565" as="sourcePoint" />
            <mxPoint x="302.0000000000002" y="530" as="targetPoint" />
          </mxGeometry>
        </mxCell>
        <mxCell id="Vciy-SmRDI5QlQ2o9Kxp-139" value="REST" style="edgeLabel;html=1;align=center;verticalAlign=middle;resizable=0;points=[];" vertex="1" connectable="0" parent="Vciy-SmRDI5QlQ2o9Kxp-117">
          <mxGeometry x="0.2186" y="1" relative="1" as="geometry">
            <mxPoint x="-1" as="offset" />
          </mxGeometry>
        </mxCell>
        <mxCell id="Vciy-SmRDI5QlQ2o9Kxp-118" value="" style="edgeStyle=none;noEdgeStyle=1;strokeColor=#990000;strokeWidth=2;exitX=0;exitY=0.5;exitDx=0;exitDy=0;" edge="1" parent="1" source="Vciy-SmRDI5QlQ2o9Kxp-106">
          <mxGeometry width="100" height="100" relative="1" as="geometry">
            <mxPoint x="552" y="575" as="sourcePoint" />
            <mxPoint x="290" y="330" as="targetPoint" />
          </mxGeometry>
        </mxCell>
        <mxCell id="Vciy-SmRDI5QlQ2o9Kxp-137" value="REST" style="edgeLabel;html=1;align=center;verticalAlign=middle;resizable=0;points=[];" vertex="1" connectable="0" parent="Vciy-SmRDI5QlQ2o9Kxp-118">
          <mxGeometry x="0.1696" y="3" relative="1" as="geometry">
            <mxPoint y="-1" as="offset" />
          </mxGeometry>
        </mxCell>
        <mxCell id="Vciy-SmRDI5QlQ2o9Kxp-121" value="&lt;p style=&quot;margin: 0px; margin-top: 4px; text-align: center; text-decoration: underline;&quot;&gt;&lt;strong&gt;ZTP-Redfish&lt;br&gt;&lt;/strong&gt;&lt;/p&gt;&lt;hr&gt;&lt;p style=&quot;margin: 0px; margin-left: 8px;&quot;&gt;Golang&lt;/p&gt;" style="verticalAlign=middle;align=center;overflow=fill;fontSize=12;fontFamily=Helvetica;html=1;rounded=1;fontStyle=1;strokeWidth=3;fillColor=#E6FFCC" vertex="1" parent="1">
          <mxGeometry x="1020" y="236" width="110" height="90" as="geometry" />
        </mxCell>
        <mxCell id="Vciy-SmRDI5QlQ2o9Kxp-127" value="GRPC" style="shape=flexArrow;endArrow=classic;startArrow=classic;html=1;rounded=1;exitX=0;exitY=0.5;exitDx=0;exitDy=0;strokeColor=#990000;strokeWidth=2;fillColor=#990000;align=center;labelPosition=center;verticalLabelPosition=middle;verticalAlign=middle;" edge="1" parent="1" source="Vciy-SmRDI5QlQ2o9Kxp-121" target="Vciy-SmRDI5QlQ2o9Kxp-124">
          <mxGeometry width="100" height="100" relative="1" as="geometry">
            <mxPoint x="1020" y="279" as="sourcePoint" />
            <mxPoint x="690" y="280" as="targetPoint" />
          </mxGeometry>
        </mxCell>
        <mxCell id="Vciy-SmRDI5QlQ2o9Kxp-124" value="&lt;div style=&quot;background-color:#2b2b2b;color:#a9b7c6&quot;&gt;&lt;pre style=&quot;font-family: &amp;quot;JetBrains Mono&amp;quot;, monospace;&quot;&gt;&lt;div style=&quot;&quot;&gt;&lt;pre style=&quot;font-family: &amp;quot;JetBrains Mono&amp;quot;, monospace;&quot;&gt;&lt;font style=&quot;font-size: 8px;&quot;&gt;redfish-operation&lt;/font&gt;&lt;/pre&gt;&lt;/div&gt;&lt;/pre&gt;&lt;/div&gt;" style="outlineConnect=0;dashed=0;verticalLabelPosition=bottom;verticalAlign=top;align=center;html=1;shape=mxgraph.aws3.queue;fillColor=#D9A741;gradientColor=none;" vertex="1" parent="1">
          <mxGeometry x="790" y="258" width="75.5" height="46" as="geometry" />
        </mxCell>
        <mxCell id="Vciy-SmRDI5QlQ2o9Kxp-131" value="&lt;div style=&quot;background-color:#2b2b2b;color:#a9b7c6&quot;&gt;&lt;pre style=&quot;font-family: &amp;quot;JetBrains Mono&amp;quot;, monospace;&quot;&gt;&lt;div style=&quot;&quot;&gt;&lt;pre style=&quot;font-family: &amp;quot;JetBrains Mono&amp;quot;, monospace;&quot;&gt;&lt;pre style=&quot;font-family:&#39;JetBrains Mono&#39;,monospace;font-size:9.8pt;&quot;&gt;&lt;div&gt;&lt;pre style=&quot;font-family:&#39;JetBrains Mono&#39;,monospace;font-size:9.8pt;&quot;&gt;wrcpQueue&lt;/pre&gt;&lt;/div&gt;&lt;/pre&gt;&lt;/pre&gt;&lt;/div&gt;&lt;/pre&gt;&lt;/div&gt;" style="outlineConnect=0;dashed=0;verticalLabelPosition=bottom;verticalAlign=top;align=center;html=1;shape=mxgraph.aws3.queue;fillColor=#D9A741;gradientColor=none;" vertex="1" parent="1">
          <mxGeometry x="648.25" y="300" width="75.5" height="46" as="geometry" />
        </mxCell>
        <mxCell id="Vciy-SmRDI5QlQ2o9Kxp-133" value="" style="image;html=1;image=img/lib/clip_art/networking/Print_Server_128x128.png" vertex="1" parent="1">
          <mxGeometry x="1035" y="470" width="80" height="80" as="geometry" />
        </mxCell>
        <mxCell id="Vciy-SmRDI5QlQ2o9Kxp-134" value="" style="edgeStyle=none;noEdgeStyle=1;strokeColor=#990000;strokeWidth=2;exitX=0.5;exitY=1;exitDx=0;exitDy=0;entryX=0.5;entryY=0;entryDx=0;entryDy=0;" edge="1" parent="1" source="Vciy-SmRDI5QlQ2o9Kxp-121" target="Vciy-SmRDI5QlQ2o9Kxp-133">
          <mxGeometry width="100" height="100" relative="1" as="geometry">
            <mxPoint x="684" y="575" as="sourcePoint" />
            <mxPoint x="343" y="340" as="targetPoint" />
          </mxGeometry>
        </mxCell>
        <mxCell id="Vciy-SmRDI5QlQ2o9Kxp-143" value="IDRAC" style="image;html=1;image=img/lib/clip_art/networking/Print_Server_128x128.png" vertex="1" parent="1">
          <mxGeometry x="955" y="470" width="80" height="80" as="geometry" />
        </mxCell>
        <mxCell id="Vciy-SmRDI5QlQ2o9Kxp-144" value="" style="image;html=1;image=img/lib/clip_art/networking/Print_Server_128x128.png" vertex="1" parent="1">
          <mxGeometry x="865.5" y="470" width="80" height="80" as="geometry" />
        </mxCell>
        <mxCell id="Vciy-SmRDI5QlQ2o9Kxp-145" value="" style="edgeStyle=none;noEdgeStyle=1;strokeColor=#990000;strokeWidth=2;entryX=0.5;entryY=0;entryDx=0;entryDy=0;exitX=0.5;exitY=1;exitDx=0;exitDy=0;" edge="1" parent="1" source="Vciy-SmRDI5QlQ2o9Kxp-121" target="Vciy-SmRDI5QlQ2o9Kxp-143">
          <mxGeometry width="100" height="100" relative="1" as="geometry">
            <mxPoint x="1020" y="360" as="sourcePoint" />
            <mxPoint x="1085" y="480" as="targetPoint" />
          </mxGeometry>
        </mxCell>
        <mxCell id="Vciy-SmRDI5QlQ2o9Kxp-146" value="Redfish" style="edgeLabel;html=1;align=center;verticalAlign=middle;resizable=0;points=[];" vertex="1" connectable="0" parent="Vciy-SmRDI5QlQ2o9Kxp-145">
          <mxGeometry x="-0.1911" y="2" relative="1" as="geometry">
            <mxPoint as="offset" />
          </mxGeometry>
        </mxCell>
        <mxCell id="Vciy-SmRDI5QlQ2o9Kxp-147" value="" style="edgeStyle=none;noEdgeStyle=1;strokeColor=#990000;strokeWidth=2;entryX=0.5;entryY=0;entryDx=0;entryDy=0;exitX=0.5;exitY=1;exitDx=0;exitDy=0;" edge="1" parent="1" source="Vciy-SmRDI5QlQ2o9Kxp-121" target="Vciy-SmRDI5QlQ2o9Kxp-144">
          <mxGeometry width="100" height="100" relative="1" as="geometry">
            <mxPoint x="1085" y="336" as="sourcePoint" />
            <mxPoint x="1005" y="480" as="targetPoint" />
          </mxGeometry>
        </mxCell>
      </root>
    </mxGraphModel>
  </diagram>
</mxfile>
